Coordinates
version=1
nRows=16
nColumns=40
inDegrees=yes

Units are S.I. units (second, meters, Newtons, ...)
If the header above contains a line with 'inDegrees', this indicates whether rotational values are in degrees (yes) or radians (no).

endheader
time	pelvis_tilt	pelvis_list	pelvis_rotation	pelvis_tx	pelvis_ty	pelvis_tz	hip_flexion_r	hip_adduction_r	hip_rotation_r	knee_angle_r	knee_angle_r_beta	ankle_angle_r	subtalar_angle_r	mtp_angle_r	hip_flexion_l	hip_adduction_l	hip_rotation_l	knee_angle_l	knee_angle_l_beta	ankle_angle_l	subtalar_angle_l	mtp_angle_l	lumbar_extension	lumbar_bending	lumbar_rotation	arm_flex_r	arm_add_r	arm_rot_r	elbow_flex_r	pro_sup_r	wrist_flex_r	wrist_dev_r	arm_flex_l	arm_add_l	arm_rot_l	elbow_flex_l	pro_sup_l	wrist_flex_l	wrist_dev_l
      8.50000000	      2.66081409	     -3.45883839	   -172.41627485	      0.21750475	      0.92769967	     -0.59606197	     14.51015293	    -15.30990965	    -19.97672361	     16.08869843	      0.28080076	      0.87024059	      0.00000000	      0.00000000	     15.83836787	     -2.74814688	     -9.19264916	     13.76403522	      0.24022773	     -0.64584032	      0.00000000	      0.00000000	    -11.90090161	     -2.30866480	     -9.94240841	     12.75747518	     -6.85465508	     27.51065144	      9.68716870	     28.88058286	      0.00000000	      0.00000000	     21.34257567	    -12.30930683	     79.28430503	      8.08690408	     79.19400913	      0.00000000	      0.00000000
      8.50500000	      2.43383687	     -3.50321776	   -172.45887982	      0.21728610	      0.92803406	     -0.59588910	     14.22054520	    -15.32383841	    -19.99273634	     16.02827137	      0.27974611	      0.84994985	      0.00000000	      0.00000000	     15.57373809	     -2.73250417	     -9.26206509	     13.78303105	      0.24055927	     -0.63191164	      0.00000000	      0.00000000	    -11.85208405	     -2.34531930	     -9.86698961	     12.81029580	     -6.68001552	     26.42302252	      9.25878472	     29.88376466	      0.00000000	      0.00000000	     21.18563149	    -12.29722271	     78.95559898	      8.17703480	     79.02462288	      0.00000000	      0.00000000
      8.51000000	      2.32291653	     -3.52462990	   -172.44898528	      0.21713829	      0.92814381	     -0.59566496	     14.06565926	    -15.34389220	    -20.02439208	     16.01188035	      0.27946003	      0.90203610	      0.00000000	      0.00000000	     15.43907881	     -2.70518315	     -9.18340579	     13.78556044	      0.24060342	     -0.54205287	      0.00000000	      0.00000000	    -11.67258655	     -2.36593603	     -9.92341599	     12.78856087	     -6.55751029	     25.92687042	      9.06622295	     30.11010580	      0.00000000	      0.00000000	     20.99980600	    -12.22473187	     78.60737886	      8.08841125	     78.78886650	      0.00000000	      0.00000000
      8.51500000	      2.13784542	     -3.25608254	   -172.22220753	      0.21705795	      0.92825473	     -0.59501319	     13.66719646	    -15.07767065	    -20.44042433	     15.78257280	      0.27545786	      0.85550265	      0.00000000	      0.00000000	     15.47671961	     -2.96282328	     -8.84741944	     14.14868781	      0.24694119	     -0.30831908	      0.00000000	      0.00000000	    -11.55950587	     -2.00210363	    -10.01272614	     12.68380511	     -6.62314124	     25.22278229	      8.94433370	     30.95402378	      0.00000000	      0.00000000	     20.78088938	    -11.67106548	     77.45217740	      7.27472013	     77.82956792	      0.00000000	      0.00000000
      8.52000000	      1.89984949	     -3.59465343	   -172.65878193	      0.21680175	      0.92867608	     -0.59572111	     13.52927095	    -15.30067193	    -19.96934014	     15.82786199	      0.27624831	      0.96389695	      0.00000000	      0.00000000	     14.92097454	     -2.73040863	     -9.41159659	     13.79762566	      0.24081400	     -0.45361104	      0.00000000	      0.00000000	    -11.55083075	     -2.46841030	     -9.60840828	     12.57241416	     -6.43033227	     24.12739095	      8.95312326	     31.46131363	      0.00000000	      0.00000000	     20.81350502	    -12.05932075	     78.68457801	      7.92536239	     79.17888177	      0.00000000	      0.00000000
      8.52500000	      1.74827413	     -3.59500469	   -172.68218357	      0.21662958	      0.92888233	     -0.59560990	     13.31206241	    -15.28005922	    -20.05650915	     15.75773746	      0.27502440	      0.95542471	      0.00000000	      0.00000000	     14.74408590	     -2.74834307	     -9.40805664	     13.81096873	      0.24104688	     -0.39808345	      0.00000000	      0.00000000	    -11.42363755	     -2.45977980	     -9.56992543	     12.39794298	     -6.57013544	     24.57797133	      9.13913459	     31.07436484	      0.00000000	      0.00000000	     20.68138786	    -11.98196975	     78.74812620	      7.86868926	     79.03047900	      0.00000000	      0.00000000
      8.53000000	      1.60579112	     -3.56977987	   -172.75336806	      0.21647925	      0.92911569	     -0.59560721	     13.06107578	    -15.18674643	    -20.08578393	     15.55496945	      0.27148543	      0.92482739	      0.00000000	      0.00000000	     14.55520358	     -2.79895365	     -9.43688555	     13.77818685	      0.24047473	     -0.37737813	      0.00000000	      0.00000000	    -11.28354628	     -2.43253428	     -9.49159293	     12.34464441	     -6.41634256	     23.52710545	      9.00258815	     31.52223074	      0.00000000	      0.00000000	     20.55186238	    -11.89043193	     78.39183872	      7.81647957	     79.18439688	      0.00000000	      0.00000000
      8.53500000	      1.49057772	     -3.53518891	   -172.71669957	      0.21631162	      0.92924068	     -0.59539118	     12.85785811	    -15.14613522	    -20.29867908	     15.46662816	      0.26994359	      0.91992961	      0.00000000	      0.00000000	     14.45831993	     -2.83945600	     -9.41773919	     13.84336782	      0.24161235	     -0.30041385	      0.00000000	      0.00000000	    -11.11158451	     -2.36552026	     -9.53012798	     12.35547777	     -6.28340176	     22.38844016	      8.71733107	     32.42868270	      0.00000000	      0.00000000	     20.33354007	    -11.85182712	     77.85064044	      7.88182461	     78.91901639	      0.00000000	      0.00000000
      8.54000000	      1.41183316	     -3.44149759	   -172.62403507	      0.21622205	      0.92930115	     -0.59510010	     12.70139342	    -15.06041793	    -20.51321272	     15.41160588	      0.26898327	      0.92390803	      0.00000000	      0.00000000	     14.44854605	     -2.92196782	     -9.28008074	     13.96701806	      0.24377045	     -0.19556867	      0.00000000	      0.00000000	    -10.90648285	     -2.22711403	     -9.55625979	     12.17121905	     -6.32581680	     22.14307432	      8.73281323	     32.66730864	      0.00000000	      0.00000000	     20.07482296	    -11.46862185	     76.78719084	      7.29645097	     77.60554087	      0.00000000	      0.00000000
      8.54500000	      1.32820042	     -3.55083137	   -172.78803355	      0.21606258	      0.92945027	     -0.59534060	     12.61598246	    -15.11980666	    -20.39877558	     15.35894525	      0.26806416	      0.93025347	      0.00000000	      0.00000000	     14.25956071	     -2.85171433	     -9.48157154	     13.86764467	      0.24203606	     -0.23600077	      0.00000000	      0.00000000	    -10.72929708	     -2.37691673	     -9.36401705	     11.97790196	     -6.30931401	     21.84060589	      8.94488421	     32.25655291	      0.00000000	      0.00000000	     20.12280943	    -11.75550338	     78.28074364	      7.76482368	     79.33420819	      0.00000000	      0.00000000
      8.55000000	      1.26610940	     -3.57173495	   -172.81420733	      0.21601607	      0.92950796	     -0.59535653	     12.55726742	    -15.13707436	    -20.42907200	     15.37763695	      0.26839040	      0.93920260	      0.00000000	      0.00000000	     14.20617469	     -2.85010549	     -9.49290260	     13.91743409	      0.24290505	     -0.21643968	      0.00000000	      0.00000000	    -10.54344844	     -2.39772940	     -9.38317568	     11.83216359	     -6.31785120	     22.36330722	      9.15515094	     30.97501647	      0.00000000	      0.00000000	     19.97743504	    -11.82264388	     78.33035783	      7.88383427	     79.26687031	      0.00000000	      0.00000000
      8.55500000	      1.20884947	     -3.61408336	   -172.87541475	      0.21589721	      0.92956400	     -0.59547121	     12.51645424	    -15.16734104	    -20.39946163	     15.40642061	      0.26889277	      0.96519302	      0.00000000	      0.00000000	     14.14300038	     -2.83757035	     -9.59477640	     13.95382847	      0.24354025	     -0.18612812	      0.00000000	      0.00000000	    -10.35406492	     -2.45101895	     -9.36693091	     11.72840747	     -6.39003871	     23.02023486	      9.10973253	     30.73623511	      0.00000000	      0.00000000	     19.80860819	    -11.82515256	     78.15604866	      7.86793650	     78.81853191	      0.00000000	      0.00000000
      8.56000000	      1.13992519	     -3.60015939	   -172.88707582	      0.21581940	      0.92956607	     -0.59549572	     12.49526142	    -15.17122372	    -20.42796500	     15.52583016	      0.27097686	      1.00438351	      0.00000000	      0.00000000	     14.14859703	     -2.88918267	     -9.59557505	     14.13515714	      0.24670503	     -0.09679215	      0.00000000	      0.00000000	    -10.18327853	     -2.43191931	     -9.36757590	     11.54291363	     -6.45746253	     23.37784179	      9.43441601	     29.58638519	      0.00000000	      0.00000000	     19.71257634	    -11.78273842	     77.84323814	      7.83435102	     79.21850498	      0.00000000	      0.00000000
      8.56500000	      1.21419664	     -3.46115452	   -172.69964930	      0.21585984	      0.92925906	     -0.59509255	     12.54909651	    -15.08830478	    -20.61435548	     15.57762191	      0.27188079	      1.04512187	      0.00000000	      0.00000000	     14.46261597	     -3.01094505	     -9.36974675	     14.50885326	      0.25322726	      0.08555886	      0.00000000	      0.00000000	     -9.85580881	     -2.26507214	     -9.55439632	     11.54262102	     -6.35650273	     22.96542787	      9.11948186	     29.99786895	      0.00000000	      0.00000000	     19.52033694	    -11.43313102	     77.23977788	      7.22374746	     78.82250104	      0.00000000	      0.00000000
      8.57000000	      0.98218526	     -3.68999318	   -172.95291183	      0.21563707	      0.92963055	     -0.59569257	     12.43066192	    -15.27433445	    -20.36775549	     15.74567265	      0.27481383	      1.11280909	      0.00000000	      0.00000000	     14.05855745	     -2.86680053	     -9.68542795	     14.35435736	      0.25053080	     -0.02583448	      0.00000000	      0.00000000	     -9.91083543	     -2.55518630	     -9.48138094	     11.65937377	     -6.09229938	     22.07071915	      8.81707117	     30.74738385	      0.00000000	      0.00000000	     19.36485801	    -11.84094699	     76.95553419	      7.83918355	     78.83581979	      0.00000000	      0.00000000
      8.57500000	      0.88138684	     -3.66429208	   -172.93748898	      0.21559291	      0.92967144	     -0.59568820	     12.33150524	    -15.23570916	    -20.33199571	     15.78418950	      0.27548608	      1.13832185	      0.00000000	      0.00000000	     14.03611236	     -2.92690077	     -9.67579700	     14.52144747	      0.25344707	      0.06195179	      0.00000000	      0.00000000	     -9.81106468	     -2.51477510	     -9.48883647	     11.25424624	     -6.44553158	     24.39503146	      9.78377109	     26.86993881	      0.00000000	      0.00000000	     19.32335993	    -11.83153316	     77.27038045	      7.83246218	     79.34059269	      0.00000000	      0.00000000
